<?xml version="1.0" encoding="UTF-8" standalone="no"?>
<!-- Created with Inkscape (http://www.inkscape.org/) -->

<svg
   width="47.999985mm"
   height="48.012638mm"
   viewBox="0 0 47.999985 48.012638"
   version="1.1"
   id="svg5"
   xml:space="preserve"
   inkscape:version="1.2.2 (732a01da63, 2022-12-09)"
   sodipodi:docname="pins.svg"
   xmlns:inkscape="http://www.inkscape.org/namespaces/inkscape"
   xmlns:sodipodi="http://sodipodi.sourceforge.net/DTD/sodipodi-0.dtd"
   xmlns="http://www.w3.org/2000/svg"
   xmlns:svg="http://www.w3.org/2000/svg"><sodipodi:namedview
     id="namedview7"
     pagecolor="#ffffff"
     bordercolor="#000000"
     borderopacity="0.25"
     inkscape:showpageshadow="2"
     inkscape:pageopacity="0.0"
     inkscape:pagecheckerboard="0"
     inkscape:deskcolor="#d1d1d1"
     inkscape:document-units="mm"
     showgrid="false"
     inkscape:zoom="2.8649832"
     inkscape:cx="-2.4432953"
     inkscape:cy="79.756141"
     inkscape:window-width="1920"
     inkscape:window-height="991"
     inkscape:window-x="-9"
     inkscape:window-y="-9"
     inkscape:window-maximized="1"
     inkscape:current-layer="layer1" /><defs
     id="defs2" /><g
     inkscape:label="Layer 1"
     inkscape:groupmode="layer"
     id="layer1"
     transform="translate(-28.993108,-34.458183)"><path
       style="fill:#000000;stroke-width:0.0735374"
       d="M 59.047309,82.427629 C 55.091188,82.097804 51.455356,80.422418 48.62769,77.626282 45.637921,74.66985 43.845721,70.569961 43.70265,66.359616 43.6852,65.845596 43.68483,65.844824 43.464544,65.824654 38.767148,65.394549 34.807113,63.182978 31.979056,59.410321 c -1.479393,-1.973524 -2.521888,-4.593612 -2.896694,-7.280216 -0.11729,-0.84074 -0.119416,-3.034687 -0.0038,-3.89749 0.956301,-7.135047 6.355558,-12.617739 13.44341,-13.651145 1.132892,-0.165176 3.284948,-0.164216 4.363024,0.0019 4.245498,0.654351 7.855893,2.800291 10.406069,6.18514 1.640613,2.177584 2.668439,4.785562 2.999715,7.611409 l 0.09049,0.77187 0.917662,0.04911 c 4.045703,0.216493 7.91637,1.952686 10.810287,4.848971 1.792647,1.794118 3.125278,3.904753 3.966633,6.282408 0.972335,2.7478 1.180485,5.915289 0.582022,8.856886 -1.267635,6.230784 -6.093049,11.243566 -12.314897,12.79308 -1.608611,0.400613 -3.711272,0.577436 -5.295686,0.445344 z m 3.4107,-1.507456 c 3.704546,-0.526608 7.133029,-2.419426 9.52244,-5.257214 1.576905,-1.872813 2.724927,-4.17605 3.245514,-6.511386 0.294997,-1.323331 0.359325,-2.093623 0.317577,-3.802647 -0.03353,-1.372635 -0.0652,-1.688585 -0.25988,-2.592648 -0.37539,-1.743272 -0.959742,-3.248479 -1.827128,-4.706401 -3.326355,-5.591014 -9.781125,-8.451081 -16.166931,-7.163465 -1.527653,0.308032 -3.529776,1.092123 -4.816709,1.886367 -2.437128,1.504098 -4.518549,3.760256 -5.753915,6.236962 -0.993628,1.992056 -1.504021,4.013393 -1.578553,6.251615 -0.08747,2.626675 0.37158,4.828985 1.49148,7.155494 2.215248,4.602006 6.4331,7.695482 11.591127,8.501222 0.857514,0.133952 3.298914,0.135163 4.234978,0.0022 z m -4.096301,-1.403677 c -5.11015,-0.743832 -9.409343,-4.319318 -11.09738,-9.229292 -1.565233,-4.552782 -0.636365,-9.580337 2.459238,-13.310765 2.737595,-3.299 6.883922,-5.1455 11.16486,-4.972086 4.488532,0.181823 8.508267,2.448511 11.02267,6.215574 1.813156,2.716458 2.59802,6.205297 2.140758,9.515989 -0.841408,6.091979 -5.699916,10.950901 -11.782612,11.783623 -1.013025,0.138683 -2.944207,0.137179 -3.907534,-0.0031 z m 3.735163,-1.394224 c 4.408372,-0.641071 8.079433,-3.518698 9.780252,-7.666443 0.659698,-1.608781 0.93074,-3.18566 0.868393,-5.0522 -0.0461,-1.380155 -0.195254,-2.271719 -0.572067,-3.419497 -1.325846,-4.038546 -4.682393,-7.185528 -8.741459,-8.195687 -1.249486,-0.310954 -1.749092,-0.368295 -3.164117,-0.363161 -1.172962,0.0043 -1.487714,0.03156 -2.283957,0.198133 -2.788087,0.583259 -5.134149,1.937574 -6.979524,4.029076 -2.064006,2.339294 -3.225477,5.62589 -3.064935,8.672781 0.16602,3.150818 1.355235,5.907679 3.499668,8.112988 2.065253,2.123887 4.568961,3.367953 7.54184,3.747465 0.599272,0.0765 2.406564,0.03969 3.115906,-0.06346 z m -6.974429,-4.674564 c -0.356541,-0.142293 -0.682558,-0.458291 -0.855074,-0.828795 -0.147726,-0.317262 -0.175261,-0.491654 -0.17552,-1.111668 -2.78e-4,-0.923418 0.08233,-1.221175 0.450044,-1.620101 0.522672,-0.567033 0.332449,-0.549256 5.877757,-0.549256 h 4.905518 l 0.393334,0.205479 c 0.286075,0.149446 0.453804,0.303185 0.615083,0.563773 0.207519,0.335306 0.223359,0.412825 0.246861,1.20812 0.02892,0.978364 -0.04212,1.29397 -0.377102,1.675497 -0.492519,0.560947 -0.216875,0.535907 -5.861934,0.532492 -3.130536,-0.0019 -5.10608,-0.03049 -5.218967,-0.07554 z m 10.05723,-1.970933 c 0.01551,-0.445391 -0.0051,-0.635675 -0.07354,-0.679098 -0.162026,-0.102789 -9.426452,-0.07784 -9.529956,0.02568 -0.09173,0.09173 -0.12414,0.982783 -0.0434,1.193178 0.04044,0.105389 0.514625,0.114994 4.835091,0.09793 l 4.790255,-0.0189 z M 54.899631,67.787418 c -0.679014,-0.307835 -0.839212,-0.57802 -1.173567,-1.979332 -0.130281,-0.546016 -0.432448,-1.798678 -0.671485,-2.783693 -0.239035,-0.985015 -0.434611,-1.872768 -0.434611,-1.972787 0,-0.272784 0.374815,-0.611759 0.676444,-0.611759 0.16607,0 0.809797,0.277776 1.972406,0.851124 1.607655,0.792824 1.732009,0.841891 1.815396,0.716305 0.415105,-0.62518 2.767214,-3.709037 2.899752,-3.801868 0.200392,-0.140361 0.477223,-0.149147 0.705371,-0.02237 0.09025,0.05014 0.811487,0.960028 1.602757,2.021967 0.791274,1.06194 1.462003,1.916863 1.490513,1.899828 0.02851,-0.01704 0.809042,-0.398623 1.734517,-0.847972 1.077373,-0.523103 1.767917,-0.816999 1.919623,-0.816999 0.152646,0 0.309622,0.06736 0.441236,0.189337 0.189484,0.175603 0.20133,0.2196 0.16335,0.606683 -0.04127,0.420569 -1.235929,5.392701 -1.385253,5.765356 -0.117659,0.293632 -0.667385,0.769261 -0.993884,0.859921 -0.188997,0.05248 -1.974479,0.07831 -5.357555,0.07751 -4.948832,-0.0011 -5.082258,-0.0049 -5.40501,-0.151231 z m 10.426042,-1.33588 c 0.07364,-0.08995 0.972277,-3.710711 0.972277,-3.917487 0,-0.07027 -0.447229,0.116628 -1.356425,0.566863 -1.233666,0.610912 -1.378418,0.665588 -1.599442,0.604133 -0.205201,-0.05705 -0.452496,-0.347816 -1.58927,-1.868613 -0.740441,-0.990576 -1.369188,-1.807573 -1.397215,-1.815552 -0.03744,-0.01067 -2.178577,2.82144 -2.575352,3.406433 -0.09695,0.142941 -0.415724,0.321718 -0.573651,0.321718 -0.08832,0 -0.759343,-0.297187 -1.491155,-0.660414 -0.731814,-0.363231 -1.330454,-0.636237 -1.330315,-0.606687 0.0011,0.253957 0.961654,3.946554 1.039293,3.995741 0.05516,0.03495 2.288568,0.06404 4.96314,0.06466 3.802233,8.34e-4 4.879273,-0.01893 4.938115,-0.0908 z M 43.840107,63.712265 c 0.04477,-0.364009 0.07787,-0.664503 0.07354,-0.667758 -0.0043,-0.0033 -0.339003,-0.04333 -0.743718,-0.08905 -1.992754,-0.225107 -3.952185,-0.959069 -5.705338,-2.1371 -2.788821,-1.873947 -4.697313,-4.740405 -5.447818,-8.182344 -0.145542,-0.667477 -0.166643,-0.975601 -0.16811,-2.454655 -0.0014,-1.484807 0.01895,-1.790151 0.167287,-2.500276 0.364876,-1.746857 1.150193,-3.578898 2.127757,-4.963783 0.635767,-0.900671 2.206251,-2.471153 3.10692,-3.106919 1.384886,-0.977565 3.216925,-1.762881 4.963785,-2.127758 0.710124,-0.148328 1.015468,-0.168758 2.500275,-0.167286 1.892846,0.0019 2.501304,0.09191 4.007795,0.59305 3.761526,1.25128 6.829438,4.256564 8.114711,7.949056 0.312788,0.898618 0.611801,2.211633 0.680262,2.987161 0.0474,0.536966 0.06108,0.572662 0.205615,0.53673 0.08516,-0.02118 0.381113,-0.06152 0.657675,-0.08966 0.324327,-0.033 0.51681,-0.08758 0.5422,-0.153749 0.06429,-0.167527 -0.129225,-1.469277 -0.350168,-2.355572 -1.41803,-5.688329 -6.077157,-9.918778 -11.888597,-10.794747 -0.967157,-0.145781 -3.050685,-0.142499 -4.053368,0.0064 -2.276931,0.338092 -4.427403,1.211833 -6.359705,2.583961 -0.776281,0.551239 -2.479433,2.237728 -3.063009,3.033046 -1.26736,1.727206 -2.09648,3.586794 -2.55887,5.739167 -0.185081,0.861521 -0.197474,1.036919 -0.197474,2.794424 0,1.757474 0.0124,1.93302 0.197574,2.795997 0.818247,3.813389 2.997066,7.013471 6.25589,9.188174 0.686621,0.458199 1.926121,1.095 2.729287,1.402187 1.170627,0.447726 3.134422,0.886675 3.830043,0.856088 l 0.294152,-0.01292 0.08141,-0.661838 z m 0.683628,-3.047211 C 46.195449,55.59769 50.171723,51.626608 55.214873,49.98788 l 0.953919,-0.30997 -0.04814,-0.577261 c -0.220626,-2.645517 -1.379199,-5.084268 -3.348278,-7.048005 -1.694001,-1.689406 -3.483855,-2.661694 -5.84681,-3.176119 -0.627018,-0.136506 -0.970512,-0.16113 -2.247647,-0.16113 -1.631842,0 -2.308896,0.09756 -3.574225,0.515003 -3.404224,1.123098 -6.21538,3.929548 -7.333757,7.321479 -0.413876,1.255243 -0.527286,2.039455 -0.524882,3.629483 0.0025,1.585401 0.09961,2.252581 0.515012,3.534557 1.169732,3.609939 4.227157,6.507295 7.946548,7.530506 0.666621,0.183389 1.676567,0.352494 2.167368,0.3629 l 0.335892,0.0071 0.313864,-0.951392 z M 39.861206,57.62127 c -0.467404,-0.183261 -0.689109,-0.358881 -1.516645,-1.201395 -1.062754,-1.081987 -1.20175,-1.32728 -1.20155,-2.120412 2.2e-4,-0.806463 0.171068,-1.105562 1.234024,-2.160191 0.789742,-0.783555 0.862236,-0.837016 1.145057,-0.844432 0.28615,-0.0075 0.337566,0.02757 0.983225,0.670538 l 0.681285,0.67845 2.959024,-2.959703 c 1.627464,-1.627836 2.959027,-2.991987 2.959027,-3.031447 0,-0.03946 -0.28899,-0.362082 -0.642201,-0.716937 -0.606034,-0.608855 -0.641754,-0.66219 -0.634286,-0.947049 0.0074,-0.282721 0.06095,-0.355311 0.844428,-1.144979 1.05356,-1.061879 1.35341,-1.233347 2.160192,-1.235297 0.512947,-0.0012 0.63751,0.02585 0.972519,0.211485 0.4714,0.261217 2.0653,1.872275 2.263011,2.28737 0.211029,0.443061 0.230529,1.1615 0.04491,1.654594 -0.125825,0.334249 -0.309436,0.561204 -1.05774,1.307457 -1.228268,1.224896 -1.214757,1.22287 -2.135427,0.320005 -0.376591,-0.369312 -0.715902,-0.671474 -0.754024,-0.671474 -0.09015,0 -5.914855,5.825381 -5.914855,5.915542 0,0.03774 0.302162,0.376746 0.671471,0.753337 0.902868,0.92067 0.904891,0.907159 -0.320003,2.135427 -0.733715,0.73573 -0.975895,0.932791 -1.291829,1.051142 -0.43381,0.162504 -1.101162,0.184589 -1.449609,0.04797 z m 1.461071,-1.8123 0.524442,-0.512775 -1.157297,-1.158992 -1.157294,-1.158992 -0.478569,0.474313 c -0.53305,0.528314 -0.639953,0.799106 -0.454205,1.150538 0.124661,0.23586 1.493968,1.606368 1.666309,1.66777 0.357596,0.127409 0.53183,0.05125 1.056614,-0.461862 z m 9.052076,-9.049633 c 0.484308,-0.501657 0.498172,-0.526457 0.458721,-0.820592 -0.03556,-0.265091 -0.135764,-0.398708 -0.795417,-1.060614 -0.415105,-0.416522 -0.847102,-0.795572 -0.959992,-0.842333 -0.319575,-0.132371 -0.562142,-0.02385 -1.084994,0.485398 l -0.483561,0.470984 1.138942,1.142224 c 0.626418,0.628223 1.158734,1.142224 1.18292,1.142224 0.02418,0 0.26871,-0.232781 0.543381,-0.517291 z"
       id="path302" /></g></svg>
